# Blender 4.3.2
# www.blender.org
mtllib piatra.mtl
o Cube
v 41.875614 -33.347424 -37.794868
v 41.943104 -33.364513 -39.239563
v 42.694550 -33.369316 -39.163952
v 42.543434 -33.348434 -37.958023
v 41.704678 -33.851830 -37.831589
v 42.065926 -33.830383 -39.540688
v 42.680973 -33.890148 -39.265965
v 42.538990 -33.892460 -37.523071
v 41.813229 -33.330238 -38.421333
v 42.224224 -33.365906 -37.993259
v 41.748119 -33.622616 -37.698124
v 42.317429 -33.348347 -39.348831
v 41.767067 -33.597321 -39.451618
v 42.712425 -33.289726 -38.441227
v 42.944965 -33.586384 -39.095970
v 42.750702 -33.598801 -37.757488
v 41.842632 -33.920235 -38.553280
v 42.208260 -33.869923 -37.453362
v 42.397385 -33.880665 -39.686302
v 42.747074 -33.944054 -38.527618
v 42.259121 -33.265068 -38.480442
v 42.233112 -33.964355 -38.350113
v 41.758701 -33.687420 -38.634876
v 42.143208 -33.586647 -39.440750
v 42.945309 -33.577061 -38.477890
v 42.336449 -33.537983 -37.486126
v 41.828583 -33.343323 -38.837772
v 42.387554 -33.371120 -38.048141
v 41.670193 -33.735783 -37.724983
v 42.478489 -33.372089 -39.298576
v 41.859066 -33.681149 -39.481869
v 42.614834 -33.304356 -38.159237
v 42.790981 -33.767891 -39.341484
v 42.661961 -33.785576 -37.556839
v 41.912792 -33.962193 -39.128635
v 42.326015 -33.878475 -37.307804
v 42.508915 -33.878803 -39.415443
v 42.822258 -33.919594 -38.038170
v 41.814651 -33.316418 -38.091370
v 42.055443 -33.336433 -37.829391
v 41.798161 -33.470039 -37.653755
v 42.150135 -33.337013 -39.323292
v 41.826180 -33.473557 -39.405384
v 42.738098 -33.304924 -38.830505
v 42.912731 -33.442795 -39.040150
v 42.699253 -33.427773 -37.836933
v 41.734848 -33.907761 -38.120602
v 41.928757 -33.867981 -37.645576
v 42.279915 -33.859886 -39.730785
v 42.746796 -33.934803 -38.956402
v 42.452587 -33.281311 -38.495834
v 42.050625 -33.265316 -38.446213
v 42.179882 -33.317268 -38.162369
v 42.297142 -33.281181 -38.922443
v 42.335686 -33.968060 -38.945923
v 42.226017 -33.932735 -37.851276
v 41.995548 -33.964684 -38.325157
v 42.505997 -33.961002 -38.513424
v 41.719929 -33.661476 -39.200222
v 41.720078 -33.648655 -38.056438
v 41.719322 -33.497761 -38.477989
v 41.810917 -33.845421 -38.654057
v 42.690971 -33.565762 -39.389652
v 41.972214 -33.581310 -39.496815
v 42.309261 -33.462292 -39.534760
v 42.280582 -33.670441 -39.600212
v 42.991955 -33.530754 -38.032940
v 42.944302 -33.590839 -38.830204
v 42.903107 -33.331837 -38.348862
v 42.875633 -33.845425 -38.551552
v 42.578316 -33.605522 -37.576332
v 42.018734 -33.585232 -37.513016
v 42.188103 -33.749092 -37.286880
v 42.328335 -33.422066 -37.689899
v 42.517586 -33.301361 -38.919994
v 42.537334 -33.955170 -38.991295
v 41.783596 -33.845165 -39.181770
v 42.649349 -33.708916 -39.458862
v 42.974957 -33.781555 -38.049671
v 42.568062 -33.459091 -37.764595
v 42.403618 -33.304157 -38.119064
v 42.022205 -33.277081 -38.078064
v 42.091366 -33.271183 -38.880150
v 42.108456 -33.972477 -39.102779
v 41.915688 -33.956688 -38.038292
v 42.481136 -33.938507 -37.921936
v 41.686226 -33.476192 -39.024059
v 41.696259 -33.449982 -37.944401
v 41.654346 -33.773445 -38.044781
v 42.549423 -33.476559 -39.428280
v 42.044804 -33.460930 -39.463654
v 42.032234 -33.686974 -39.471062
v 42.818230 -33.363392 -37.976715
v 42.903923 -33.410542 -38.849483
v 42.855156 -33.823822 -39.024029
v 42.363075 -33.781670 -37.364647
v 41.915489 -33.753742 -37.491405
v 42.037056 -33.444653 -37.713821
vn -0.2605 0.8836 0.3890
vn -0.3343 0.9034 -0.2686
vn 0.3276 0.8777 -0.3498
vn -0.0895 0.9059 0.4140
vn -0.6529 -0.7226 0.2271
vn -0.4402 -0.5890 -0.6777
vn 0.3734 -0.8589 -0.3504
vn 0.3994 -0.8090 0.4313
vn -0.5690 0.8219 -0.0270
vn 0.1546 0.9453 0.2874
vn -0.8303 0.3325 0.4472
vn 0.0906 0.9303 -0.3554
vn -0.8205 0.0117 -0.5715
vn 0.1730 0.9849 0.0112
vn 0.9543 0.0477 -0.2951
vn 0.6714 0.3319 0.6626
vn -0.5412 -0.8385 -0.0633
vn -0.1895 -0.9060 0.3785
vn 0.2950 -0.6999 -0.6504
vn 0.3559 -0.9344 -0.0123
vn 0.0503 0.9979 0.0401
vn 0.0198 -0.9993 0.0314
vn -0.9862 -0.1637 -0.0247
vn -0.0343 0.1609 -0.9864
vn 0.9980 0.0388 -0.0490
vn 0.1462 0.7267 0.6712
vn -0.5187 0.8519 -0.0724
vn 0.0135 0.9458 0.3246
vn -0.9405 -0.0103 0.3396
vn 0.2374 0.9028 -0.3585
vn -0.5519 -0.3771 -0.7438
vn 0.0526 0.9816 0.1835
vn 0.7679 -0.3893 -0.5087
vn 0.7319 -0.1899 0.6544
vn -0.4564 -0.8731 -0.1716
vn 0.0629 -0.8088 0.5848
vn 0.3564 -0.8257 -0.4372
vn 0.4590 -0.8765 0.1453
vn -0.5159 0.8542 0.0644
vn 0.1041 0.9367 0.3343
vn -0.6184 0.5458 0.5653
vn -0.1119 0.9355 -0.3351
vn -0.5892 0.6343 -0.5005
vn 0.2610 0.9577 -0.1208
vn 0.7716 0.5832 -0.2541
vn 0.2893 0.7686 0.5706
vn -0.6211 -0.7836 -0.0148
vn -0.3019 -0.8845 0.3556
vn -0.1991 -0.5420 -0.8165
vn 0.4050 -0.9076 -0.1105
vn 0.0387 0.9991 0.0199
vn -0.0830 0.9965 0.0142
vn 0.1440 0.9721 0.1851
vn 0.0681 0.9931 -0.0954
vn 0.0495 -0.9974 -0.0527
vn -0.0325 -0.9936 0.1085
vn -0.0896 -0.9959 0.0115
vn 0.0523 -0.9985 0.0175
vn -0.9673 -0.1923 -0.1652
vn -0.9938 0.1098 -0.0196
vn -0.9781 0.2079 -0.0135
vn -0.9079 -0.4151 -0.0578
vn 0.5775 0.4099 -0.7060
vn -0.1550 0.1842 -0.9706
vn 0.1405 0.3232 -0.9359
vn 0.1092 0.5724 -0.8127
vn 0.9454 0.2261 0.2349
vn 0.9969 -0.0673 -0.0395
vn 0.6721 0.7401 0.0204
vn 0.8318 -0.5519 -0.0583
vn 0.4851 0.5460 0.6830
vn -0.3185 0.6299 0.7084
vn -0.2607 0.0008 0.9654
vn 0.1261 0.9169 0.3786
vn 0.0905 0.9891 -0.1160
vn 0.0954 -0.9917 -0.0859
vn -0.8051 -0.5598 -0.1959
vn 0.5559 0.1112 -0.8238
vn 0.9103 -0.3746 0.1761
vn 0.1922 0.8373 0.5119
vn -0.0282 0.9706 0.2390
vn 0.0176 0.9928 0.1183
vn -0.1179 0.9891 -0.0884
vn -0.0885 -0.9896 -0.1130
vn -0.1573 -0.9831 0.0941
vn 0.0343 -0.9965 0.0763
vn -0.9286 0.3604 -0.0884
vn -0.9316 0.3431 0.1199
vn -0.9935 -0.0975 -0.0581
vn 0.4267 0.3120 -0.8489
vn -0.1831 0.5665 -0.8035
vn -0.2433 0.3441 -0.9068
vn 0.5036 0.7941 0.3402
vn 0.7849 0.6137 -0.0862
vn 0.8120 -0.5685 -0.1321
vn 0.4153 0.0817 0.9060
vn -0.5898 -0.2287 0.7745
vn -0.0315 0.7990 0.6005
vt 0.137636 0.563411
vt 0.058285 0.569867
vt 0.082613 0.506661
vt 0.152906 0.498683
vt 0.155028 0.344089
vt 0.206316 0.378186
vt 0.155630 0.402329
vt 0.099783 0.387655
vt 0.896175 0.282885
vt 0.854473 0.349296
vt 0.794976 0.248970
vt 0.870663 0.174892
vt 0.949240 0.587705
vt 0.944083 0.694636
vt 0.905653 0.682602
vt 0.916733 0.604517
vt 0.336809 0.082005
vt 0.369246 0.000842
vt 0.489191 0.000000
vt 0.460672 0.063535
vt 0.485748 0.254952
vt 0.512673 0.310590
vt 0.481603 0.323059
vt 0.447322 0.276247
vt 0.276846 0.583529
vt 0.215363 0.578539
vt 0.223692 0.502410
vt 0.270084 0.523882
vt 0.288525 0.695621
vt 0.226456 0.694739
vt 0.220811 0.635843
vt 0.266533 0.646047
vt 0.149628 0.688747
vt 0.060049 0.668982
vt 0.053708 0.620010
vt 0.140662 0.629249
vt 0.046020 0.277128
vt 0.115533 0.299946
vt 0.042023 0.402498
vt 0.011393 0.383384
vt 0.133867 0.094672
vt 0.226136 0.127633
vt 0.165692 0.199396
vt 0.116225 0.149680
vt 0.273683 0.187557
vt 0.335575 0.267841
vt 0.258354 0.321530
vt 0.206193 0.274302
vt 0.422948 0.654063
vt 0.520455 0.684734
vt 0.477461 0.726331
vt 0.404599 0.713241
vt 0.422729 0.459207
vt 0.529375 0.479105
vt 0.539575 0.580737
vt 0.439840 0.553878
vt 0.744126 0.814485
vt 0.672331 0.787452
vt 0.683844 0.711964
vt 0.731678 0.707183
vt 0.016271 0.536299
vt 0.006598 0.482318
vt 0.054401 0.402498
vt 0.090851 0.431859
vt 0.857058 0.070133
vt 0.855242 0.125920
vt 0.818683 0.137473
vt 0.786060 0.070157
vt 0.829103 0.182611
vt 0.720806 0.251159
vt 0.693981 0.268226
vt 0.758736 0.168010
vt 0.408067 0.318081
vt 0.348488 0.225548
vt 0.431026 0.176751
vt 0.834672 0.401576
vt 0.821728 0.494375
vt 0.758928 0.488146
vt 0.747834 0.361119
vt 0.853441 0.628842
vt 0.844101 0.700647
vt 0.766741 0.707183
vt 0.766456 0.640000
vt 0.554998 0.057463
vt 0.491069 0.166304
vt 0.661203 0.071636
vt 0.642437 0.169965
vt 0.565426 0.199969
vt 0.608937 0.072162
vt 0.628288 0.255903
vt 0.619708 0.321108
vt 0.560004 0.310321
vt 0.556413 0.271543
vt 0.934356 0.187628
vt 0.907061 0.133559
vt 0.622627 0.581780
vt 0.617335 0.678426
vt 0.662917 0.562066
vt 0.672331 0.661064
vt 0.939564 0.506329
vt 0.869574 0.490922
vt 0.791582 0.866218
vt 0.744126 0.821215
vt 0.752056 0.707183
vt 0.791426 0.711743
vt 1.000000 0.606532
vt 0.999879 0.706758
vt 0.672331 0.596657
vt 0.677773 0.459778
vt 0.674914 0.687648
vt 0.387737 0.801509
vt 0.336809 0.833560
vt 0.336920 0.785916
vt 0.384519 0.726331
vt 0.506205 0.350977
vt 0.448079 0.354288
vt 0.559475 0.342029
vt 0.609960 0.361119
vt 0.324683 0.722893
vt 0.278588 0.749240
vt 0.320949 0.673747
vt 0.218381 0.752553
vt 0.143231 0.752483
vt 0.069266 0.722735
vt 0.808347 0.361119
vt 0.056221 0.145884
vt 0.000000 0.241327
vt 0.085645 0.065345
vt 0.116277 0.014773
vt 0.187902 0.035191
vt 0.273048 0.064123
vt 0.316518 0.068429
vt 0.336809 0.140426
vt 0.340137 0.610197
vt 0.336809 0.674909
vt 0.339988 0.536299
vt 0.336833 0.476818
vt 0.353162 0.419686
vt 0.429528 0.400325
vt 0.517650 0.412671
vt 0.604166 0.482239
vt 0.586459 0.423461
vt 0.646477 0.441109
vt 0.670954 0.491413
vt 0.000000 0.608449
vt 0.694133 0.143704
vt 0.736508 0.092307
vt 0.012308 0.682984
vt 0.019832 0.742597
vt 0.913859 0.076969
vt 0.232244 0.440506
vt 0.291247 0.454530
vt 0.685316 0.388716
vt 0.130148 0.436240
vt 0.867108 0.417288
vt 0.563922 0.000091
vt 0.582099 0.007382
vt 0.207942 0.000000
vt 0.293309 0.025246
vt 0.579472 0.365264
vt 0.639569 0.392860
vt 0.477201 0.361119
vt 0.693981 0.150197
vt 0.693822 0.237100
vt 0.668575 0.311882
s 1
usemtl Material.004
f 75/1/75 44/4/44 3/3/3 30/2/30
f 76/5/76 37/8/37 7/7/7 50/6/50
f 77/9/77 31/12/31 6/11/6 35/10/35
f 78/13/78 33/16/33 7/15/7 37/14/37
f 79/17/79 34/20/34 8/19/8 38/18/38
f 80/21/80 46/24/46 4/23/4 28/22/28
f 81/25/81 32/28/32 14/27/14 51/26/51
f 82/29/82 53/32/53 21/31/21 52/30/52
f 83/33/83 54/36/54 12/35/12 42/34/42
f 84/37/84 49/40/49 19/39/19 55/38/55
f 85/41/85 57/44/57 22/43/22 56/42/56
f 86/45/86 58/48/58 20/47/20 38/46/38
f 87/49/87 43/52/43 13/51/13 59/50/59
f 88/53/88 61/56/61 23/55/23 60/54/60
f 89/57/89 62/60/62 17/59/17 47/58/47
f 90/61/90 45/64/45 15/63/15 63/62/63
f 91/65/91 65/68/65 24/67/24 64/66/64
f 92/69/92 66/72/66 19/71/19 49/70/49
f 93/73/93 46/24/46 16/75/16 67/74/67
f 94/76/94 69/79/69 25/78/25 68/77/68
f 95/80/95 70/83/70 20/82/20 50/81/50
f 96/84/96 34/20/34 16/75/16 71/85/71
f 97/86/97 73/89/73 26/88/26 72/87/72
f 98/90/98 74/93/74 10/92/10 40/91/40
f 51/26/51 14/27/14 44/4/44 75/1/75
f 21/31/21 51/26/51 75/1/75 54/36/54
f 54/36/54 75/1/75 30/2/30 12/35/12
f 55/38/55 19/39/19 37/8/37 76/5/76
f 22/43/22 55/38/55 76/5/76 58/48/58
f 58/48/58 76/5/76 50/6/50 20/47/20
f 59/94/59 13/95/13 31/12/31 77/9/77
f 23/55/23 59/50/59 77/97/77 62/96/62
f 62/96/62 77/97/77 35/99/35 17/98/17
f 63/100/63 15/101/15 33/16/33 78/13/78
f 24/102/24 63/105/63 78/104/78 66/103/66
f 66/106/66 78/13/78 37/14/37 19/107/19
f 67/74/67 16/75/16 34/20/34 79/17/79
f 25/78/25 67/109/67 79/108/79 70/83/70
f 70/83/70 79/108/79 38/110/38 20/82/20
f 71/85/71 16/75/16 46/24/46 80/21/80
f 26/88/26 71/85/71 80/21/80 74/93/74
f 74/111/74 80/114/80 28/113/28 10/112/10
f 28/22/28 4/23/4 32/116/32 81/115/81
f 10/92/10 28/22/28 81/115/81 53/117/53
f 53/32/53 81/25/81 51/26/51 21/31/21
f 40/91/40 10/92/10 53/117/53 82/118/82
f 1/119/1 40/121/40 82/29/82 39/120/39
f 39/120/39 82/29/82 52/30/52 9/122/9
f 52/30/52 21/31/21 54/36/54 83/33/83
f 9/122/9 52/30/52 83/33/83 27/123/27
f 27/123/27 83/33/83 42/34/42 2/124/2
f 35/10/35 6/11/6 49/70/49 84/125/84
f 17/126/17 35/127/35 84/37/84 57/44/57
f 57/44/57 84/37/84 55/38/55 22/43/22
f 47/128/47 17/126/17 57/44/57 85/41/85
f 5/129/5 47/128/47 85/41/85 48/130/48
f 48/130/48 85/41/85 56/42/56 18/131/18
f 56/42/56 22/43/22 58/48/58 86/45/86
f 18/131/18 56/42/56 86/45/86 36/132/36
f 36/132/36 86/45/86 38/46/38 8/133/8
f 27/134/27 2/135/2 43/52/43 87/49/87
f 9/136/9 27/134/27 87/49/87 61/56/61
f 61/56/61 87/49/87 59/50/59 23/55/23
f 39/137/39 9/136/9 61/56/61 88/53/88
f 1/138/1 39/137/39 88/53/88 41/139/41
f 41/139/41 88/53/88 60/54/60 11/140/11
f 60/54/60 23/55/23 62/96/62 89/141/89
f 11/140/11 60/54/60 89/141/89 29/142/29
f 29/142/29 89/141/89 47/144/47 5/143/5
f 30/2/30 3/3/3 45/64/45 90/61/90
f 12/35/12 30/2/30 90/61/90 65/145/65
f 65/68/65 90/147/90 63/146/63 24/67/24
f 42/34/42 12/35/12 65/145/65 91/148/91
f 2/124/2 42/34/42 91/148/91 43/149/43
f 43/150/43 91/65/91 64/66/64 13/95/13
f 64/66/64 24/67/24 66/72/66 92/69/92
f 13/95/13 64/66/64 92/69/92 31/12/31
f 31/12/31 92/69/92 49/70/49 6/11/6
f 32/116/32 4/23/4 46/24/46 93/73/93
f 14/27/14 32/28/32 93/152/93 69/151/69
f 69/79/69 93/153/93 67/109/67 25/78/25
f 44/4/44 14/27/14 69/151/69 94/154/94
f 3/3/3 44/4/44 94/154/94 45/64/45
f 45/155/45 94/76/94 68/77/68 15/101/15
f 68/77/68 25/78/25 70/83/70 95/80/95
f 15/101/15 68/77/68 95/80/95 33/16/33
f 33/16/33 95/80/95 50/81/50 7/15/7
f 36/156/36 8/19/8 34/20/34 96/84/96
f 18/157/18 36/156/36 96/84/96 73/89/73
f 73/89/73 96/84/96 71/85/71 26/88/26
f 48/130/48 18/131/18 73/159/73 97/158/97
f 5/143/5 48/161/48 97/160/97 29/142/29
f 29/142/29 97/160/97 72/162/72 11/140/11
f 72/87/72 26/88/26 74/93/74 98/90/98
f 11/163/11 72/87/72 98/90/98 41/164/41
f 41/164/41 98/90/98 40/91/40 1/165/1
